<mxfile host="app.diagrams.net" modified="2024-02-02T03:39:00.038Z" agent="Mozilla/5.0 (X11; CrOS x86_64 14541.0.0) AppleWebKit/537.36 (KHTML, like Gecko) Chrome/120.0.0.0 Safari/537.36" version="23.1.1" etag="gABN3iQvKK_bUeT5qrZo" type="github">
  <diagram name="Page-1" id="RJkh1rNs9FKi67x7sWSf">
    <mxGraphModel>
      <root>
        <mxCell id="0" />
        <mxCell id="1" parent="0" />
      </root>
    </mxGraphModel>
  </diagram>
</mxfile>
